# xmcd CD database file
#
# Track frame offsets:
#	187
#	15597
#	32645
#	54117
#	73022
#	94525
#	112247
#	131557
#	151582
#	171270
#
# Disc length: 2537 seconds
#
# Revision: 0
# Processed by: cddbd v1.5PL3 Copyright (c) Steve Scherf et al.
# Submitted via: CDex 1.51
#
DISCID=7609e70a
DTITLE=岩崎宏美 - CD FILE VOL.4
DYEAR=1900
DGENRE=Pop
TTITLE0=春おぼろ
TTITLE1=吐息ばかり
TTITLE2=夏に抱かれて
TTITLE3=ラブ・アラベスク
TTITLE4=万華鏡
TTITLE5=泣きながら目覚めて
TTITLE6=スローな愛がいいわ
TTITLE7=白夜
TTITLE8=女優
TTITLE9=レンガ通りの恋人達
EXTD=
EXTT0=
EXTT1=
EXTT2=
EXTT3=
EXTT4=
EXTT5=
EXTT6=
EXTT7=
EXTT8=
EXTT9=
PLAYORDER=
